<?xml version="1.0" encoding="UTF-8" standalone="no"?>
<svg
   xmlns:dc="http://purl.org/dc/elements/1.1/"
   xmlns:cc="http://creativecommons.org/ns#"
   xmlns:rdf="http://www.w3.org/1999/02/22-rdf-syntax-ns#"
   xmlns:svg="http://www.w3.org/2000/svg"
   xmlns="http://www.w3.org/2000/svg"
   xmlns:sodipodi="http://sodipodi.sourceforge.net/DTD/sodipodi-0.dtd"
   xmlns:inkscape="http://www.inkscape.org/namespaces/inkscape"
   viewBox="0 0 259.55976 373.3748"
   width="61"
   height="61"
   version="1.1"
   id="svg26"
   sodipodi:docname="d20-red.svg"
   inkscape:version="1.0.2 (e86c870879, 2021-01-15, custom)">
  <metadata
     id="metadata32">
    <rdf:RDF>
      <cc:Work
         rdf:about="">
        <dc:format>image/svg+xml</dc:format>
        <dc:type
           rdf:resource="http://purl.org/dc/dcmitype/StillImage" />
        <dc:title></dc:title>
      </cc:Work>
    </rdf:RDF>
  </metadata>
  <defs
     id="defs30" />
  <sodipodi:namedview
     pagecolor="#ffffff"
     bordercolor="#666666"
     borderopacity="1"
     objecttolerance="10"
     gridtolerance="10"
     guidetolerance="10"
     inkscape:pageopacity="0"
     inkscape:pageshadow="2"
     inkscape:window-width="1438"
     inkscape:window-height="1040"
     id="namedview28"
     showgrid="false"
     inkscape:zoom="12.921875"
     inkscape:cx="14.62636"
     inkscape:cy="32"
     inkscape:window-x="234"
     inkscape:window-y="0"
     inkscape:window-maximized="0"
     inkscape:current-layer="svg26" />
  <g
     transform="matrix(0.25,0,0,0.25,40.447815,23.603906)"
     id="g24">
    <path
       fill="#000000"
       d="m 379.93,375.668 c -0.57,0.019 -1.226,0.228 -1.585,0.731 l -80.673,96.527 c -1.342,1.681 -1.433,2.056 0.366,2.073 l 161.59,-0.427 c 2.221,-0.182 2.23,-0.07 0.792,-1.951 l -79.27,-96.527 c -0.164,-0.254 -0.649,-0.44 -1.22,-0.426 z m 15.489,8.598 72.746,88.478 c 0.974,1.182 1.212,1.249 2.927,0.427 l 38.354,-17.562 c 2.513,-1.134 2.165,-1.366 0.487,-2.5 z m -33.965,3.232 c -0.034,-0.072 -0.625,0.37 -1.952,1.281 l -105.612,69.513 33.05,15.001 c 1.724,0.568 2.239,0.599 3.354,-0.793 l 69.698,-83.234 c 0.981,-1.137 1.495,-1.696 1.462,-1.768 z m 153.602,72.258 c -0.328,0.023 -0.846,0.212 -1.646,0.548 l -39.392,17.989 c -1.398,0.635 -1.311,1.49 -0.792,2.561 l 45.793,116.162 -3.292,-135.309 c -0.101,-1.479 -0.123,-1.99 -0.671,-1.951 z m -264.154,3.598 -4.208,131.651 38.782,-113.907 c 0.573,-1.682 0.559,-1.767 -0.61,-2.317 z m 210.859,17.073 -165.249,0.427 c -2.361,-0.035 -2.264,-0.033 -1.098,1.89 l 83.905,141.529 c 1.417,2.159 1.265,2.092 2.744,-0.121 L 462.675,482.38 c 0.708,-1.127 1.212,-1.914 -0.914,-1.953 z m 6.586,3.72 c -0.152,0.064 -0.318,0.639 -0.793,1.524 l -81.16,142.809 c -0.887,1.508 -1.097,2.048 1.036,1.708 l 128.845,-17.744 c 2.044,-0.467 1.982,-1.197 1.281,-3.232 l -48.6,-123.479 c -0.321,-1.183 -0.456,-1.65 -0.609,-1.586 z m -178.176,1.342 c -0.158,0.113 -0.3,0.715 -0.609,1.585 l -41.16,121.162 c -0.701,2.573 -0.78,3.541 1.829,4.024 l 123.113,17.805 c 2.328,0.351 2.03,-0.822 1.463,-1.951 L 291.024,486.769 c -0.526,-1.067 -0.695,-1.394 -0.853,-1.28 z m -32.013,133.845 120.796,68.538 c 1.564,0.949 1.929,0.604 1.707,-1.036 l -2.561,-48.05 c -0.07,-1.551 -0.28,-2.183 -1.89,-2.439 z m 249.764,0.121 -122.625,16.952 c -1.618,0.238 -1.326,1.032 -1.342,2.195 l 2.622,48.903 c 0.135,1.483 0.091,2.017 1.89,1.098 z"
       id="path22" />
  </g>
  <path
     style="fill:#ff0000;stroke-width:0.118421"
     d="m 135.40228,179.72932 c -1.11591,-1.82487 -21.20577,-35.78089 -21.18142,-35.80098 0.099,-0.0817 41.87977,-0.17799 41.92485,-0.0966 0.0523,0.0945 -19.94614,35.34265 -20.36528,35.89468 l -0.21046,0.27718 z"
     id="path34" />
  <path
     style="fill:#ff0000;stroke-width:0.118421"
     d="m 118.12767,178.80319 c -8.42089,-1.22559 -15.38799,-2.29248 -15.48243,-2.37086 -0.11299,-0.0938 -0.14585,-0.24924 -0.0961,-0.45462 0.13435,-0.55415 10.3603,-30.62523 10.44189,-30.7061 0.0684,-0.0678 20.97057,35.07383 21.16819,35.58882 0.06,0.1563 -0.002,0.19121 -0.32335,0.18222 -0.21864,-0.006 -7.28736,-1.01387 -15.70825,-2.23946 z"
     id="path36" />
  <path
     style="fill:#ff0000;stroke-width:0.118421"
     d="m 102.23571,171.46165 c -0.0183,-0.55681 0.98111,-31.79601 1.01869,-31.8413 0.0723,-0.0872 8.57206,3.83367 8.56729,3.95196 -0.0129,0.31849 -9.57754,28.14591 -9.58598,27.88934 z"
     id="path38" />
  <path
     style="fill:#ff0000;stroke-width:0.118421"
     d="m 112.23571,141.86165 c -0.66686,-0.2702 -7.94048,-3.59213 -8.01295,-3.65959 -0.0462,-0.043 5.76059,-3.92521 12.90398,-8.62711 7.14338,-4.70189 13.00601,-8.53087 13.02805,-8.50882 0.049,0.049 -17.09302,20.55252 -17.35689,20.7606 -0.21316,0.1681 -0.23077,0.1692 -0.56219,0.0349 z"
     id="path40" />
  <path
     style="fill:#ff0000;stroke-width:0.118421"
     d="m 114.74147,142.23136 c -0.037,-0.0616 18.88177,-22.79673 20.2174,-24.29574 0.17428,-0.1956 0.39013,-0.35564 0.47966,-0.35564 0.13526,0 19.81798,23.82101 20.12588,24.35734 0.0548,0.0955 0.0815,0.18916 0.0592,0.20815 -0.0872,0.0744 -40.83767,0.16003 -40.88215,0.0859 z"
     id="path42" />
  <path
     style="fill:#ff0000;stroke-width:0.118421"
     d="m 157.40709,141.58134 c -0.16921,-0.20698 -4.17994,-5.08732 -8.91273,-10.84521 -4.73278,-5.75789 -8.58204,-10.49191 -8.5539,-10.52005 0.0802,-0.0802 28.16654,16.83938 28.16455,16.96662 -0.002,0.11123 -10.03954,4.77861 -10.27184,4.77619 -0.0651,-7.1e-4 -0.25687,-0.17058 -0.42608,-0.37755 z"
     id="path44" />
  <path
     style="fill:#ff0000;stroke-width:0.118421"
     d="m 164.36386,157.85668 c -3.35929,-8.52006 -5.62143,-14.41092 -5.55819,-14.47416 0.1342,-0.1342 10.16804,-4.72356 10.32725,-4.72356 0.0644,0 0.14264,0.17319 0.17379,0.38487 0.0756,0.51382 0.82315,32.65507 0.76636,32.94995 -0.0244,0.12674 -2.59355,-6.23496 -5.70921,-14.1371 z"
     id="path46" />
  <path
     style="fill:#ff0000;stroke-width:0.118421"
     d="m 137.73781,179.65305 c 6.59452,-11.65274 19.74594,-34.71696 19.79447,-34.71443 0.0943,0.005 12.32145,31.16564 12.32102,31.39992 -2.4e-4,0.1096 -0.0936,0.22818 -0.20761,0.26352 -0.11399,0.0353 -6.81515,0.97218 -14.89147,2.08187 -8.07633,1.10968 -15.23207,2.09686 -15.90164,2.19372 -0.66957,0.0969 -1.37267,0.17612 -1.56243,0.17612 h -0.34503 z"
     id="path48" />
  <path
     style="fill:#ff0000;stroke-width:0.118421"
     d="m 137.16637,195.64919 c -0.001,-0.0489 -0.15719,-2.91316 -0.34652,-6.36514 -0.20821,-3.79618 -0.30145,-6.32023 -0.23597,-6.38742 0.0596,-0.0611 0.97486,-0.23222 2.03403,-0.38028 13.57844,-1.89803 27.78886,-3.83133 27.96832,-3.80503 0.22475,0.0329 -28.99463,17.02668 -29.27603,17.02668 -0.0778,0 -0.14257,-0.04 -0.14382,-0.0888 z"
     id="path50" />
  <path
     style="fill:#ff0000;stroke-width:0.118421"
     d="m 120.39533,187.11216 c -8.21579,-4.66731 -14.90364,-8.49702 -14.86187,-8.51047 0.18671,-0.0601 29.15672,4.18986 29.25469,4.29172 0.0605,0.0629 0.24837,2.69885 0.41757,5.85774 0.33088,6.17727 0.35285,6.87419 0.21623,6.85773 -0.0489,-0.006 -6.81083,-3.82941 -15.02662,-8.49672 z"
     id="path52" />
</svg>
